<?xml version="1.0" encoding="utf-8"?>
<!DOCTYPE svg PUBLIC "-//W3C//DTD SVG 1.0//EN" "http://www.w3.org/TR/2001/REC-SVG-20010904/DTD/svg10.dtd">
<svg version="1.0" xmlns="http://www.w3.org/2000/svg" width="1024px" height="1024px" viewBox="0 0 1024 1024" preserveAspectRatio="xMidYMid meet">
 <g fill="none" stroke="#ffffff" stroke-width="0.5">
  <path d="M216.40 687.15 c-1.65 -0.40 -1 -1.65 0.85 -1.65 1.40 0 1.75 0.20 1.75 1 0 1 -0.70 1.15 -2.60 0.65z"/>
  <path d="M528 684.50 c0 -0.80 0.35 -1 1.75 -1 1.95 0 2.30 0.70 0.80 1.50 -1.55 0.80 -2.55 0.60 -2.55 -0.50z"/>
  <path d="M199.15 683.35 c-2.10 -1.40 -2.05 -1.85 0.10 -1.85 1.60 0 1.75 0.10 1.75 1.50 0 0.85 -0.05 1.50 -0.10 1.45 -0.10 0 -0.90 -0.50 -1.75 -1.10z"/>
  <path d="M539 680.25 c0 -1.10 0.20 -1.25 1.75 -1.25 1.40 0 1.75 -0.20 1.75 -1 0 -0.80 0.35 -1 1.80 -1 1.55 0 1.75 0.10 1.20 0.75 -0.55 0.65 -5.70 3.75 -6.25 3.75 -0.15 0 -0.25 -0.55 -0.25 -1.25z"/>
  <path d="M555.50 666.30 c0 -1.65 0.10 -1.80 1.55 -1.80 1.50 0 1.50 0 0.45 1.50 -1.55 2.20 -2 2.25 -2 0.30z"/>
  <path d="M515 656.30 c0 -0.65 1.40 -1.30 2.90 -1.30 0.30 0 0.60 0.45 0.60 1 0 0.80 -0.35 1 -1.75 1 -1.15 0 -1.75 -0.25 -1.75 -0.70z"/>
  <path d="M522.50 654.10 c0 -0.40 2.60 -2.10 3.20 -2.10 0.15 0 0.30 0.55 0.30 1.25 0 1.10 -0.20 1.25 -1.75 1.25 -0.95 0 -1.75 -0.20 -1.75 -0.40z"/>
  <path d="M186.80 652.90 c-0.15 -0.65 -0.30 -2.10 -0.30 -3.25 0 -1.80 0.15 -2.15 1 -2.15 0.90 0 1 0.35 1 3.25 0 2.45 -0.15 3.25 -0.70 3.25 -0.35 0 -0.80 -0.50 -1 -1.10z"/>
  <path d="M567 636.75 c0 -1.40 0.20 -1.75 1 -1.75 1.05 0 1.20 0.50 0.70 2.40 -0.50 1.80 -1.70 1.35 -1.70 -0.65z"/>
  <path d="M207 627.25 c0 -1.20 0.05 -1.25 1.60 -0.60 2.30 0.95 2.40 1.85 0.20 1.85 -1.60 0 -1.80 -0.15 -1.80 -1.25z"/>
  <path d="M203 626.25 c0 -0.50 -0.55 -0.75 -1.75 -0.75 -1.55 0 -1.75 -0.15 -1.75 -1.25 0 -1.25 0 -1.25 1.90 -0.45 1 0.45 2.60 1.05 3.50 1.35 2.20 0.70 2.10 1.85 -0.15 1.85 -1.20 0 -1.75 -0.25 -1.75 -0.75z"/>
  <path d="M191.50 620.20 c0 -0.70 0.15 -1.20 0.40 -1.10 3.65 1.75 4 2.40 1.35 2.40 -1.55 0 -1.75 -0.15 -1.75 -1.30z"/>
  <path d="M256 604 c0 -0.80 0.35 -1 1.75 -1 2 0 2.45 1.20 0.65 1.70 -1.90 0.50 -2.40 0.35 -2.40 -0.70z"/>
  <path d="M490.50 602 c0 -0.80 0.35 -1 1.75 -1 2 0 2.45 1.20 0.65 1.70 -1.90 0.50 -2.40 0.35 -2.40 -0.70z"/>
  <path d="M271.50 601.50 c0 -0.80 0.35 -1 1.75 -1 2 0 2.45 1.20 0.65 1.70 -1.90 0.50 -2.40 0.35 -2.40 -0.70z"/>
  <path d="M472.90 602.15 c-1.65 -0.40 -1 -1.65 0.85 -1.65 1.40 0 1.75 0.20 1.75 1 0 1 -0.70 1.15 -2.60 0.65z"/>
  <path d="M499.50 601 c0 -0.80 0.35 -1 1.75 -1 2 0 2.45 1.20 0.65 1.70 -1.90 0.50 -2.40 0.35 -2.40 -0.70z"/>
  <path d="M830 598.50 c0 -0.80 0.35 -1 1.75 -1 2 0 2.45 1.20 0.65 1.70 -1.90 0.50 -2.40 0.35 -2.40 -0.70z"/>
  <path d="M284 597.80 c0 -1.15 0.20 -1.30 1.75 -1.30 2.65 0 2.30 0.65 -1.35 2.40 -0.25 0.10 -0.40 -0.40 -0.40 -1.10z"/>
  <path d="M455.40 597.95 c-1.45 -0.80 -1.05 -1.45 0.85 -1.45 1.40 0 1.75 0.20 1.75 1 0 1.10 -1.20 1.30 -2.60 0.45z"/>
  <path d="M512.50 597.50 c0 -0.65 0.35 -1 1 -1 0.55 0 1 -0.20 1 -0.40 0 -0.60 2.35 -1.60 3.75 -1.60 0.75 0 1.25 -0.30 1.25 -0.70 0 -0.40 0.35 -0.85 0.80 -1 1.15 -0.45 3.70 -0.35 3.70 0.10 0 0.50 -3.35 2.45 -6.60 3.85 -1.30 0.60 -2.50 1.20 -2.70 1.40 -0.80 0.75 -2.20 0.35 -2.20 -0.65z"/>
  <path d="M205.65 596.45 c-2.55 -1.25 -2.75 -1.95 -0.50 -1.95 2.10 0 3 0.60 2.75 1.95 -0.15 1.05 -0.15 1.05 -2.25 0z"/>
  <path d="M840.50 596 c0 -0.80 0.35 -1 1.50 -1 0.85 0 1.50 -0.20 1.50 -0.50 0 -0.25 1.15 -0.60 2.50 -0.80 1.40 -0.20 2.50 -0.50 2.50 -0.75 0 -0.25 0.80 -0.45 1.75 -0.45 0.95 0 1.75 0.15 1.75 0.30 0 0.60 -1.75 1.65 -2.80 1.70 -0.55 0 -1.20 0.15 -1.40 0.35 -0.40 0.40 -5.75 2.15 -6.65 2.15 -0.35 0 -0.65 -0.45 -0.65 -1z"/>
  <path d="M291 594.25 c0 -1.10 0.20 -1.25 1.75 -1.25 2.15 0 2.25 0.70 0.25 1.75 -1.90 1 -2 0.95 -2 -0.50z"/>
  <path d="M445.90 593.60 c-1.85 -1.10 -1.75 -1.60 0.35 -1.60 1.55 0 1.75 0.15 1.75 1.25 0 1.45 -0.30 1.50 -2.10 0.35z"/>
  <path d="M854 591.30 c0 -0.95 0.25 -1.30 1 -1.30 0.55 0 1 -0.20 1 -0.50 0 -0.25 0.80 -0.50 1.75 -0.50 2.45 0 2.20 0.80 -0.60 2.10 -1.35 0.60 -2.55 1.15 -2.75 1.25 -0.25 0.10 -0.40 -0.35 -0.40 -1.05z"/>
  <path d="M439.15 589.25 c-1.40 -1.20 -1.40 -1.20 0.50 -1.25 1.65 0 1.85 0.15 1.85 1.25 0 1.55 -0.55 1.60 -2.35 0z"/>
  <path d="M860.50 587.80 c0 -1.30 0.80 -1.80 3.05 -1.80 2 0 1.80 0.60 -0.50 1.90 -2.40 1.35 -2.55 1.35 -2.55 -0.10z"/>
  <path d="M529.60 586.95 c0.15 -1.50 0.35 -1.70 1.80 -1.85 1.45 -0.15 1.60 -0.30 1.60 -1.90 0 -1.55 0.10 -1.70 1.50 -1.70 0.85 0 1.50 0.15 1.50 0.30 0 0.15 -0.80 1.10 -1.75 2.10 -0.95 1 -1.75 2 -1.75 2.20 0 0.20 -0.70 0.80 -1.55 1.45 -1.50 1.05 -1.50 1.05 -1.35 -0.60z"/>
  <path d="M435.70 586.85 c-0.85 -0.60 -1.95 -1.50 -2.40 -1.95 -0.85 -0.85 -0.80 -0.90 0.90 -0.90 1 0 1.80 0.25 1.80 0.50 0 0.30 0.35 0.50 0.75 0.50 0.50 0 0.75 0.50 0.75 1.50 0 0.85 -0.05 1.50 -0.10 1.50 -0.10 -0.05 -0.85 -0.55 -1.70 -1.15z"/>
  <path d="M189.75 585.75 c-2 -2 -2 -2 -0.55 -2.15 1.85 -0.20 2.90 0.85 2.70 2.70 -0.15 1.45 -0.15 1.45 -2.15 -0.55z"/>
  <path d="M866 584.25 c0 -1.10 0.20 -1.25 1.90 -1.25 1.85 0.05 1.85 0.05 0.45 1.25 -1.80 1.60 -2.35 1.55 -2.35 0z"/>
  <path d="M428.75 580.65 c-2.65 -2.60 -2.85 -2.90 -1.80 -3.05 1.75 -0.25 2.55 0.25 2.55 1.65 0 1 0.25 1.25 1.25 1.25 1.05 0 1.25 0.25 1.25 1.50 0 0.85 -0.10 1.50 -0.15 1.50 -0.10 0 -1.50 -1.30 -3.10 -2.85z"/>
  <path d="M308 580.80 c0 -1.65 0.10 -1.80 1.55 -1.80 1.50 0 1.50 0 0.45 1.50 -1.55 2.20 -2 2.25 -2 0.30z"/>
  <path d="M182.90 577.50 c-1.40 -1.75 -1.40 -1.75 -0.10 -1.90 1.65 -0.20 1.80 -0.05 1.60 1.95 -0.15 1.70 -0.15 1.70 -1.50 -0.05z"/>
  <path d="M421.55 572.20 c-1.35 -1.75 -1.30 -2.20 0.20 -2.20 1.10 0 1.25 0.20 1.25 1.75 0 0.95 -0.10 1.75 -0.20 1.75 -0.15 0 -0.70 -0.60 -1.25 -1.30z"/>
  <path d="M313.50 571.30 c0 -1.60 0.15 -1.80 1.25 -1.80 1.20 0 1.25 0.05 0.60 1.60 -0.95 2.30 -1.85 2.40 -1.85 0.20z"/>
  <path d="M240.50 571 c0 -1.05 0.50 -1.20 2.40 -0.70 1.80 0.50 1.35 1.70 -0.65 1.70 -1.40 0 -1.75 -0.20 -1.75 -1z"/>
  <path d="M492.50 568.80 c0 -0.65 1.40 -1.30 2.90 -1.30 0.30 0 0.60 0.45 0.60 1 0 0.80 -0.35 1 -1.75 1 -1.15 0 -1.75 -0.25 -1.75 -0.70z"/>
  <path d="M480.50 568 c0 -1.05 0.50 -1.20 2.40 -0.70 1.80 0.50 1.35 1.70 -0.65 1.70 -1.40 0 -1.75 -0.20 -1.75 -1z"/>
  <path d="M178.30 568.05 c-0.15 -0.20 -0.50 -1 -0.75 -1.75 -0.50 -1.20 -0.40 -1.30 0.70 -1.30 1.10 0 1.25 0.20 1.25 1.75 0 1.65 -0.60 2.30 -1.20 1.30z"/>
  <path d="M267.50 567.55 c0 -0.25 0.80 -0.90 1.75 -1.50 1.75 -1 1.75 -1 1.75 0.45 0 1.40 -0.15 1.50 -1.75 1.50 -0.95 0 -1.75 -0.20 -1.75 -0.45z"/>
  <path d="M721 566.50 c0 -0.65 0.35 -1 1 -1 0.65 0 1 0.35 1 1 0 0.65 -0.35 1 -1 1 -0.65 0 -1 -0.35 -1 -1z"/>
  <path d="M783.15 559.90 c0.20 -3.95 0.35 -30.50 0.35 -59.05 0 -51.95 0 -51.95 18.40 -51.70 20.15 0.25 22.55 0.50 31.50 3.80 16.40 5.95 26.35 19.90 29.35 41.05 1.65 11.90 0.40 28.30 -3.10 39.25 -4.10 12.95 -12.40 22.95 -23.40 28.25 -9.70 4.65 -15.35 5.50 -37.10 5.50 -16.30 0 -16.30 0 -16 -7.10z"/>
  <path d="M223 564.45 c0 -1.50 0 -1.50 1.50 -0.45 2.20 1.55 2.25 2 0.30 2 -1.65 0 -1.80 -0.10 -1.80 -1.55z"/>
  <path d="M273.45 562.90 c1.20 -1.20 2.45 -2.75 2.85 -3.50 1 -1.90 1.70 -1.75 1.70 0.35 0 1.40 -0.20 1.75 -1 1.75 -0.70 0 -1 0.35 -1 1.05 0 1.50 -1.20 2.45 -3.05 2.45 -1.65 0 -1.65 0 0.50 -2.10z"/>
  <path d="M316 563.90 c0 -2.95 0.65 -4.90 1.55 -4.90 1.10 0 1.10 0.15 0.40 3.50 -0.55 2.55 -1.95 3.60 -1.95 1.40z"/>
  <path d="M509.50 564 c0 -0.40 2.55 -2 3.25 -2 0.15 0 0.25 0.55 0.25 1.25 0 1.10 -0.20 1.25 -1.75 1.25 -0.95 0 -1.75 -0.20 -1.75 -0.50z"/>
  <path d="M887.50 561.75 c0 -1.40 0.20 -1.75 1 -1.75 0.80 0 1 -0.35 1 -1.75 0 -1.55 0.15 -1.75 1.25 -1.75 0.70 0 1.25 0.10 1.25 0.25 0 0.60 -3.75 6.75 -4.10 6.75 -0.20 0 -0.40 -0.80 -0.40 -1.75z"/>
  <path d="M217.50 559.20 c0 -1.95 0.45 -1.90 2 0.30 1.05 1.50 1.05 1.50 -0.45 1.50 -1.45 0 -1.55 -0.15 -1.55 -1.80z"/>
  <path d="M413.25 557.85 c-0.30 -0.35 -0.95 -1.55 -1.40 -2.70 -0.85 -2.15 -0.85 -2.15 0.35 -2.15 0.90 0 1.35 0.40 1.75 1.55 1 2.90 0.60 4.85 -0.70 3.30z"/>
  <path d="M455 552.70 c0 -1.95 0.45 -1.90 2 0.30 1.05 1.50 1.05 1.50 -0.45 1.50 -1.45 0 -1.55 -0.15 -1.55 -1.80z"/>
  <path d="M892.65 551.65 c0.15 -1.30 0.50 -2.45 0.80 -2.55 0.30 -0.10 0.55 -0.75 0.55 -1.40 0 -0.95 0.25 -1.20 1.25 -1.20 1.20 0 1.20 0 -0.05 3.35 -1.50 3.95 -1.60 4.15 -2.30 4.15 -0.35 0 -0.45 -0.85 -0.25 -2.35z"/>
  <path d="M452 548.75 c0 -0.80 -0.30 -1.25 -0.75 -1.25 -0.50 0 -0.75 -0.55 -0.75 -1.75 0 -0.95 0.15 -1.75 0.40 -1.75 0.35 0 3.60 5.10 3.60 5.70 0 0.15 -0.55 0.30 -1.25 0.30 -1 0 -1.25 -0.25 -1.25 -1.25z"/>
  <path d="M409.30 548.40 c-0.50 -1.90 -0.35 -2.40 0.70 -2.40 0.80 0 1 0.35 1 1.75 0 2 -1.20 2.45 -1.70 0.65z"/>
  <path d="M317.50 542.25 c0 -2 1.20 -2.45 1.70 -0.60 0.50 1.85 0.35 2.35 -0.70 2.35 -0.80 0 -1 -0.35 -1 -1.75z"/>
  <path d="M407.30 541.40 c-0.50 -1.90 -0.35 -2.40 0.70 -2.40 0.80 0 1 0.35 1 1.75 0 2 -1.20 2.45 -1.70 0.65z"/>
  <path d="M897 539.40 c0 -0.60 0.25 -2.40 0.60 -4 0.45 -2.25 0.80 -2.90 1.50 -2.90 1.10 0 1.10 0.15 0.10 4.55 -0.50 2.25 -1 3.45 -1.50 3.45 -0.40 0 -0.70 -0.50 -0.70 -1.10z"/>
  <path d="M406.05 535.50 c-0.70 -3.35 -0.70 -3.50 0.40 -3.50 0.90 0 1.55 1.95 1.55 4.90 0 2.20 -1.40 1.15 -1.95 -1.40z"/>
  <path d="M529.15 534.75 c0.05 -1.30 0.35 -1.75 1 -1.75 0.65 0 0.85 0.40 0.85 1.75 0 1.40 -0.20 1.75 -1 1.75 -0.85 0 -1 -0.30 -0.85 -1.75z"/>
  <path d="M260.40 530.10 c-2.85 -0.95 -3.20 -2.10 -0.65 -2.10 0.95 0 1.75 0.25 1.75 0.50 0 0.30 0.70 0.50 1.50 0.50 1.15 0 1.50 0.20 1.50 1 0 1.20 -0.80 1.20 -4.10 0.10z"/>
  <path d="M254.90 528.65 c-1.65 -0.40 -1 -1.65 0.85 -1.65 1.40 0 1.75 0.20 1.75 1 0 1 -0.70 1.15 -2.60 0.65z"/>
  <path d="M250.90 527.65 c-1.65 -0.40 -1 -1.65 0.85 -1.65 1.40 0 1.75 0.20 1.75 1 0 1 -0.70 1.15 -2.60 0.65z"/>
  <path d="M236.40 524.15 c-1.65 -0.40 -1 -1.65 0.85 -1.65 1.40 0 1.75 0.20 1.75 1 0 1 -0.70 1.15 -2.60 0.65z"/>
  <path d="M900 522.75 c0 -1.40 0.20 -1.75 1 -1.75 1.05 0 1.20 0.50 0.70 2.40 -0.50 1.80 -1.70 1.35 -1.70 -0.65z"/>
  <path d="M444 521.75 c0 -2 1.20 -2.45 1.70 -0.60 0.50 1.85 0.35 2.35 -0.70 2.35 -0.80 0 -1 -0.35 -1 -1.75z"/>
  <path d="M900.50 516.75 c0 -1.40 0.20 -1.75 1 -1.75 1.05 0 1.20 0.50 0.70 2.40 -0.50 1.80 -1.70 1.35 -1.70 -0.65z"/>
  <path d="M403.80 515.90 c-0.50 -1.90 -0.35 -2.40 0.70 -2.40 0.80 0 1 0.35 1 1.75 0 2 -1.20 2.45 -1.70 0.65z"/>
  <path d="M201.40 511.60 c-1.85 -1.10 -1.75 -1.60 0.35 -1.60 1.55 0 1.75 0.15 1.75 1.25 0 1.45 -0.30 1.50 -2.10 0.35z"/>
  <path d="M196.40 508.60 c-1.85 -1.10 -1.75 -1.60 0.35 -1.60 1.55 0 1.75 0.15 1.75 1.25 0 1.45 -0.30 1.50 -2.10 0.35z"/>
  <path d="M403.50 503.90 c0 -1.50 0.65 -2.90 1.30 -2.90 0.45 0 0.70 0.60 0.70 1.75 0 1.40 -0.20 1.75 -1 1.75 -0.55 0 -1 -0.30 -1 -0.60z"/>
  <path d="M745 497.50 c0 -2.65 0.10 -3 1 -3 0.90 0 1 0.35 1 3 0 2.65 -0.10 3 -1 3 -0.90 0 -1 -0.35 -1 -3z"/>
  <path d="M283 498.50 c0 -0.25 -0.55 -0.50 -1.25 -0.50 -0.90 0 -1.25 -0.25 -1.25 -1 0 -1.25 0.80 -1.25 3.70 0 2.75 1.15 2.95 2 0.55 2 -0.95 0 -1.75 -0.20 -1.75 -0.50z"/>
  <path d="M183.55 496.70 c-1.35 -1.75 -1.30 -2.20 0.20 -2.20 1.10 0 1.25 0.20 1.25 1.75 0 0.95 -0.10 1.75 -0.20 1.75 -0.15 0 -0.70 -0.60 -1.25 -1.30z"/>
  <path d="M900.50 496.25 c0 -2 1.20 -2.45 1.70 -0.60 0.50 1.85 0.35 2.35 -0.70 2.35 -0.80 0 -1 -0.35 -1 -1.75z"/>
  <path d="M404 495.90 c0 -1.50 0.65 -2.90 1.30 -2.90 0.45 0 0.70 0.60 0.70 1.75 0 1.40 -0.20 1.75 -1 1.75 -0.55 0 -1 -0.30 -1 -0.60z"/>
  <path d="M269 493.50 c0 -1.05 0.50 -1.20 2.40 -0.70 1.80 0.50 1.35 1.70 -0.65 1.70 -1.40 0 -1.75 -0.20 -1.75 -1z"/>
  <path d="M404.50 490.40 c0 -1.50 0.65 -2.90 1.30 -2.90 0.45 0 0.70 0.60 0.70 1.75 0 1.40 -0.20 1.75 -1 1.75 -0.55 0 -1 -0.30 -1 -0.60z"/>
  <path d="M179 489.15 c-0.40 -0.80 -0.80 -1.55 -0.90 -1.75 -0.10 -0.25 0.40 -0.40 1.10 -0.40 1.15 0 1.30 0.20 1.30 1.75 0 2.10 -0.60 2.25 -1.50 0.40z"/>
  <path d="M253.50 489.50 c0 -1.05 0.50 -1.20 2.40 -0.70 1.80 0.50 1.35 1.70 -0.65 1.70 -1.40 0 -1.75 -0.20 -1.75 -1z"/>
  <path d="M745.05 486.90 c0 -3.60 0.40 -5.40 1.25 -5.40 0.55 0 0.70 0.90 0.70 4 0 3.65 -0.10 4 -0.95 4 -0.85 0 -1 -0.35 -1 -2.60z"/>
  <path d="M243 487 c0 -1.05 0.50 -1.20 2.40 -0.70 1.80 0.50 1.35 1.70 -0.65 1.70 -1.40 0 -1.75 -0.20 -1.75 -1z"/>
  <path d="M236.65 486.15 c-0.75 -0.15 -1.15 -0.60 -1.15 -1.20 0 -1.10 0.30 -1.15 3.30 -0.40 4.10 1.05 2.20 2.45 -2.15 1.60z"/>
  <path d="M226.90 482.90 c-1 -0.35 -1.40 -0.85 -1.40 -1.65 0 -1.20 0 -1.20 3 -0.10 1.65 0.60 3 1.40 3 1.75 0 0.70 -2.65 0.75 -4.60 0z"/>
  <path d="M176.30 481.90 c-0.50 -1.90 -0.35 -2.40 0.70 -2.40 0.80 0 1 0.35 1 1.75 0 2 -1.20 2.45 -1.70 0.65z"/>
  <path d="M175.30 474.90 c-0.50 -1.90 -0.35 -2.40 0.70 -2.40 0.80 0 1 0.35 1 1.75 0 2 -1.20 2.45 -1.70 0.65z"/>
  <path d="M450 470.80 c0 -1.60 0.15 -1.80 1.25 -1.80 1.20 0 1.25 0.05 0.60 1.60 -0.95 2.30 -1.85 2.40 -1.85 0.20z"/>
  <path d="M276.70 469.60 c-0.75 -0.50 -0.60 -2.60 0.20 -2.60 0.90 0 2.10 1.25 2.10 2.20 0 0.85 -1.35 1.05 -2.30 0.40z"/>
  <path d="M565 464.25 c0 -2 1.20 -2.45 1.70 -0.60 0.50 1.85 0.35 2.35 -0.70 2.35 -0.80 0 -1 -0.35 -1 -1.75z"/>
  <path d="M275.15 463.25 c-0.55 -1.65 -0.50 -1.75 0.65 -1.75 1.05 0 1.20 0.25 1.20 1.75 0 1.10 -0.25 1.75 -0.65 1.75 -0.40 0 -0.90 -0.80 -1.20 -1.75z"/>
  <path d="M311 463.25 c0 -2 1.20 -2.45 1.70 -0.60 0.50 1.85 0.35 2.35 -0.70 2.35 -0.80 0 -1 -0.35 -1 -1.75z"/>
  <path d="M457.50 458.85 c0 -1.30 0.20 -1.85 0.75 -1.85 0.40 0 0.75 -0.35 0.75 -0.75 0 -0.40 0.35 -0.75 0.75 -0.75 0.40 0 0.75 -0.35 0.75 -0.75 0 -0.50 0.50 -0.75 1.50 -0.75 1.25 0 1.50 -0.20 1.50 -1.25 0 -1.10 0.20 -1.25 1.90 -1.25 1.85 0.05 1.85 0.05 -0.65 2.15 -1.35 1.15 -3.55 3.20 -4.85 4.60 -2.40 2.45 -2.40 2.45 -2.40 0.60z"/>
  <path d="M518.10 455.70 c-3.15 -3.20 -3.15 -3.20 -1.40 -3.20 1.65 0 1.80 0.10 1.80 1.50 0 1.35 0.15 1.50 1.50 1.50 1.40 0 1.50 0.15 1.50 1.75 0 0.95 -0.05 1.75 -0.10 1.70 -0.10 0 -1.55 -1.45 -3.30 -3.25z"/>
  <path d="M413.10 458.15 c2.25 -4.60 3.10 -6.15 3.45 -6.15 0.25 0 0.45 0.80 0.45 1.75 0 1.20 -0.25 1.75 -0.75 1.75 -0.50 0 -0.75 0.50 -0.75 1.50 0 1.30 -0.20 1.50 -1.30 1.50 -0.70 0 -1.20 -0.15 -1.10 -0.35z"/>
  <path d="M272.50 456.60 c0 -0.20 -0.80 -1.25 -1.75 -2.35 -0.95 -1.10 -1.75 -2.15 -1.75 -2.35 0 -0.25 0.70 -0.40 1.50 -0.40 1.15 0 1.50 0.20 1.50 1 0 0.55 0.35 1 0.75 1 0.50 0 0.75 0.55 0.75 1.75 0 0.95 -0.20 1.75 -0.50 1.75 -0.25 0 -0.50 -0.15 -0.50 -0.40z"/>
  <path d="M888.50 453.75 c0 -2.15 0.50 -2.20 1.65 -0.30 1.10 1.90 1.10 2.05 -0.40 2.05 -1.10 0 -1.25 -0.20 -1.25 -1.75z"/>
  <path d="M176 453.90 c0 -1.50 0.65 -2.90 1.30 -2.90 0.45 0 0.70 0.60 0.70 1.75 0 1.40 -0.20 1.75 -1 1.75 -0.55 0 -1 -0.30 -1 -0.60z"/>
  <path d="M217 452.55 c0 -1.95 1 -3.05 2.70 -3.05 1.75 0 1.65 0.40 -0.70 2.70 -2 2 -2 2 -2 0.35z"/>
  <path d="M308.80 449.95 c-0.50 -2.55 -0.35 -3.95 0.40 -3.95 0.40 0 0.90 0.95 1.25 2.20 0.75 3 0.70 3.30 -0.40 3.30 -0.65 0 -1 -0.50 -1.25 -1.55z"/>
  <path d="M560 450.25 c0 -0.70 -0.20 -1.25 -0.50 -1.25 -0.25 0 -0.50 -0.80 -0.50 -1.75 0 -2.45 0.80 -2.15 2.25 0.85 1.55 3.20 1.55 3.40 0 3.40 -1 0 -1.25 -0.25 -1.25 -1.25z"/>
  <path d="M417.50 449.65 c0 -0.60 4.75 -7.65 5.15 -7.65 0.20 0 0.35 0.80 0.35 1.75 0 1.40 -0.20 1.75 -1 1.75 -0.80 0 -1 0.35 -1 1.50 0 0.85 -0.20 1.50 -0.50 1.50 -0.25 0 -0.50 0.35 -0.50 0.75 0 0.45 -0.45 0.75 -1.25 0.75 -0.70 0 -1.25 -0.15 -1.25 -0.35z"/>
  <path d="M178.15 445.25 c0.30 -0.95 0.80 -1.75 1.20 -1.75 0.40 0 0.65 0.65 0.65 1.75 0 1.50 -0.15 1.75 -1.20 1.75 -1.15 0 -1.20 -0.10 -0.65 -1.75z"/>
  <path d="M883 446 c0 -0.55 -0.35 -1 -0.75 -1 -0.55 0 -0.75 -0.55 -0.75 -1.80 0 -2.15 0.45 -1.90 2.95 1.55 1.60 2.25 1.60 2.25 0.10 2.25 -1.20 0 -1.55 -0.20 -1.55 -1z"/>
  <path d="M486 444.50 c0 -0.80 0.35 -1 1.75 -1 2 0 2.45 1.20 0.65 1.70 -1.90 0.50 -2.40 0.35 -2.40 -0.70z"/>
  <path d="M235 443.50 c0 -0.80 0.35 -1 1.75 -1 2 0 2.45 1.20 0.65 1.70 -1.90 0.50 -2.40 0.35 -2.40 -0.70z"/>
  <path d="M306 441.25 c0 -2.15 0.70 -2.25 1.75 -0.25 1 1.90 0.95 2 -0.50 2 -1.10 0 -1.25 -0.20 -1.25 -1.75z"/>
  <path d="M717.50 437.75 c0 -3.40 0.10 -3.75 1 -3.75 0.85 0 1 0.35 1 2.65 0 3.30 -0.45 4.85 -1.30 4.85 -0.55 0 -0.70 -0.90 -0.70 -3.75z"/>
  <path d="M180 440.70 c0 -0.65 2.20 -4.20 2.60 -4.20 0.45 0 0.55 2.55 0.10 3.70 -0.30 0.75 -2.70 1.20 -2.70 0.50z"/>
  <path d="M877.50 439 c0 -1.35 0.10 -1.45 0.95 -0.95 0.50 0.35 1.15 1 1.50 1.50 0.50 0.85 0.40 0.95 -0.95 0.95 -1.35 0 -1.50 -0.15 -1.50 -1.50z"/>
  <path d="M553.50 438.20 c0 -1.95 0.45 -1.90 2 0.30 1.05 1.50 1.05 1.50 -0.45 1.50 -1.45 0 -1.55 -0.15 -1.55 -1.80z"/>
  <path d="M425.40 438.15 c0.30 -0.50 1.10 -1.45 1.85 -2.15 1.30 -1.25 1.30 -1.25 1.15 0.75 -0.15 1.85 -0.25 2 -1.80 2.15 -1.50 0.15 -1.60 0.05 -1.20 -0.75z"/>
  <path d="M185.50 431.50 c1.55 -2.20 2 -2.25 2 -0.30 0 1.65 -0.10 1.80 -1.55 1.80 -1.50 0 -1.50 0 -0.45 -1.50z"/>
  <path d="M546.50 430.50 c0 -1.50 0 -1.50 1.20 -0.75 1.90 1.25 2.05 2.25 0.30 2.25 -1.35 0 -1.50 -0.15 -1.50 -1.50z"/>
  <path d="M866.50 429.50 c0 -1.50 0 -1.50 1.75 -0.40 2.20 1.45 2.20 1.90 0 1.90 -1.60 0 -1.75 -0.10 -1.75 -1.50z"/>
  <path d="M861 426.25 c0 -1.50 0.15 -1.50 2.05 -0.40 1.90 1.15 1.85 1.65 -0.30 1.65 -1.55 0 -1.75 -0.15 -1.75 -1.25z"/>
  <path d="M293.50 424.95 c0 -1.50 0 -1.50 1.50 -0.45 2.20 1.55 2.25 2 0.30 2 -1.65 0 -1.80 -0.10 -1.80 -1.55z"/>
  <path d="M440.15 424.75 c1.80 -1.60 2.35 -1.55 2.35 0 0 1.10 -0.20 1.25 -1.85 1.25 -1.90 -0.05 -1.90 -0.05 -0.50 -1.25z"/>
  <path d="M289 421.45 c0 -1.50 0 -1.50 1.50 -0.45 2.20 1.55 2.25 2 0.30 2 -1.65 0 -1.80 -0.10 -1.80 -1.55z"/>
  <path d="M850.90 422.65 c-0.85 -0.20 -1.35 -2.65 -0.60 -2.65 1.15 0 5.20 1.85 5.20 2.35 0 0.65 -2.70 0.80 -4.60 0.30z"/>
  <path d="M447.50 420.50 c0 -0.40 4.50 -3 5.25 -3 0.15 0 0.25 0.55 0.25 1.25 0 0.90 -0.25 1.25 -1 1.25 -0.55 0 -1 0.25 -1 0.50 0 0.30 -0.80 0.50 -1.75 0.50 -0.95 0 -1.75 -0.20 -1.75 -0.50z"/>
  <path d="M837 417.50 c0 -1.05 0.50 -1.20 2.40 -0.70 1.80 0.50 1.35 1.70 -0.65 1.70 -1.40 0 -1.75 -0.20 -1.75 -1z"/>
  <path d="M204.10 417.40 c0.15 -0.35 0.95 -0.90 1.80 -1.25 1.55 -0.65 1.60 -0.60 1.60 0.60 0 1.10 -0.20 1.25 -1.80 1.25 -1.15 0 -1.70 -0.20 -1.60 -0.60z"/>
  <path d="M279 416.25 c0 -1.45 0.10 -1.50 2 -0.50 2 1.05 1.90 1.75 -0.25 1.75 -1.55 0 -1.75 -0.15 -1.75 -1.25z"/>
  <path d="M829 416 c0 -1.05 0.50 -1.20 2.40 -0.70 1.80 0.50 1.35 1.70 -0.65 1.70 -1.40 0 -1.75 -0.20 -1.75 -1z"/>
  <path d="M458 416 c0 -0.60 1.65 -1.50 2.70 -1.50 0.45 0 0.80 0.45 0.80 1 0 0.80 -0.35 1 -1.75 1 -0.95 0 -1.75 -0.20 -1.75 -0.50z"/>
  <path d="M745.35 415 c-0.20 -0.75 0 -1 0.70 -1 0.60 0 0.95 0.35 0.95 1 0 0.55 -0.30 1 -0.70 1 -0.35 0 -0.80 -0.45 -0.95 -1z"/>
  <path d="M514 414 c0 -1.05 0.50 -1.20 2.40 -0.70 1.80 0.50 1.35 1.70 -0.65 1.70 -1.40 0 -1.75 -0.20 -1.75 -1z"/>
  <path d="M267.65 413.65 c-0.75 -0.15 -1.15 -0.60 -1.15 -1.20 0 -1.10 0.30 -1.15 3.30 -0.40 4.10 1.05 2.20 2.45 -2.15 1.60z"/>
  <path d="M467 413.50 c0 -0.60 1.65 -1.50 2.70 -1.50 0.45 0 0.80 0.45 0.80 1 0 0.80 -0.35 1 -1.75 1 -0.95 0 -1.75 -0.20 -1.75 -0.50z"/>
  <path d="M218.50 412.80 c0 -0.65 1.40 -1.30 2.90 -1.30 0.30 0 0.60 0.45 0.60 1 0 0.80 -0.35 1 -1.75 1 -1.15 0 -1.75 -0.25 -1.75 -0.70z"/>
  <path d="M506.50 412.50 c0 -1.05 0.50 -1.20 2.40 -0.70 1.80 0.50 1.35 1.70 -0.65 1.70 -1.40 0 -1.75 -0.20 -1.75 -1z"/>
  <path d="M472.50 412.30 c0 -0.65 1.40 -1.30 2.90 -1.30 0.30 0 0.60 0.45 0.60 1 0 0.80 -0.35 1 -1.75 1 -1.15 0 -1.75 -0.25 -1.75 -0.70z"/>
  <path d="M482 411.30 c0 -0.65 1.40 -1.30 2.90 -1.30 0.30 0 0.60 0.45 0.60 1 0 0.80 -0.35 1 -1.75 1 -1.15 0 -1.75 -0.25 -1.75 -0.70z"/>
  <path d="M488 411 c0 -1.05 1.15 -1.30 3.40 -0.70 2.05 0.55 1.30 1.70 -1.15 1.70 -1.90 0 -2.25 -0.15 -2.25 -1z"/>
  <path d="M254 410.50 c0 -1.05 0.50 -1.20 2.40 -0.70 1.80 0.50 1.35 1.70 -0.65 1.70 -1.40 0 -1.75 -0.20 -1.75 -1z"/>
  <path d="M186.70 389.75 c-0.60 -1.45 0.75 -2.25 2.30 -1.25 0.65 0.40 0.60 0.55 -0.25 1.20 -1.25 0.95 -1.70 1 -2.05 0.05z"/>
  <path d="M191 387.30 c0 -1.15 0.20 -1.30 1.75 -1.30 1.85 0 2.50 1.15 0.90 1.65 -0.50 0.10 -1.30 0.40 -1.75 0.60 -0.75 0.30 -0.90 0.10 -0.90 -0.95z"/>
  <path d="M196 385.30 c0 -1.15 0.20 -1.30 1.75 -1.30 1.85 0 2.50 1.15 0.90 1.65 -0.50 0.10 -1.30 0.40 -1.75 0.60 -0.75 0.30 -0.90 0.10 -0.90 -0.95z"/>
  <path d="M219.50 379.50 c0 -0.80 0.35 -1 1.75 -1 2 0 2.45 1.20 0.65 1.70 -1.90 0.50 -2.40 0.35 -2.40 -0.70z"/>
  <path d="M548 373.75 c0 -2.85 0.15 -3.75 0.70 -3.75 0.75 0 1.30 1.50 1.30 3.75 0 2.25 -0.55 3.75 -1.30 3.75 -0.55 0 -0.70 -0.90 -0.70 -3.75z"/>
  <path d="M548 361 c0 -2.15 1.15 -2.85 1.65 -1 0.35 1.40 -0.15 3 -0.95 3 -0.50 0 -0.70 -0.65 -0.70 -2z"/>
  <path d="M546.50 354.75 c0 -2.65 0.65 -2.30 2.40 1.40 0.10 0.20 -0.40 0.35 -1.10 0.35 -1.15 0 -1.30 -0.20 -1.30 -1.75z"/>
  <path d="M544 350.70 c0 -1.95 0.45 -1.90 2 0.30 1.05 1.50 1.05 1.50 -0.45 1.50 -1.45 0 -1.55 -0.15 -1.55 -1.80z"/>
  <path d="M540 347.75 c0 -1.50 0.15 -1.50 2.05 -0.40 1.90 1.15 1.85 1.65 -0.30 1.65 -1.55 0 -1.75 -0.15 -1.75 -1.25z"/>
  <path d="M529 344.50 c0 -1.05 0.50 -1.20 2.40 -0.70 1.80 0.50 1.35 1.70 -0.65 1.70 -1.40 0 -1.75 -0.20 -1.75 -1z"/>
  <path d="M520.50 344.30 c0 -0.85 1.85 -1.35 3.40 -0.95 2.05 0.50 1.30 1.65 -1.15 1.65 -1.60 0 -2.25 -0.20 -2.25 -0.70z"/>
  <path d="M342 340.20 c0 -1.95 0.45 -1.90 2 0.30 1.05 1.50 1.05 1.50 -0.45 1.50 -1.45 0 -1.55 -0.15 -1.55 -1.80z"/>
  <path d="M187 336.40 c0 -1.95 0.60 -3.40 1.30 -3.40 0.50 0 0.70 0.65 0.70 2.25 0 1.90 -0.15 2.25 -1 2.25 -0.70 0 -1 -0.35 -1 -1.10z"/>
  <path d="M334 331.20 c0 -1.95 0.45 -1.90 2 0.30 1.05 1.50 1.05 1.50 -0.45 1.50 -1.45 0 -1.55 -0.15 -1.55 -1.80z"/>
  <path d="M188 325.55 c0 -1.15 2.25 -5.45 3.55 -6.80 0.95 -0.95 0.95 -0.95 0.95 0.90 0 1.30 -0.20 1.85 -0.75 1.85 -0.40 0 -0.75 0.40 -0.75 0.85 0 1.75 -1.20 4.15 -2.10 4.15 -0.55 0 -0.90 -0.35 -0.90 -0.95z"/>
  <path d="M322.50 320.25 c0 -1.05 -0.25 -1.25 -1.50 -1.25 -1.35 0 -1.50 -0.15 -1.50 -1.55 0 -1.50 0 -1.50 1.40 -0.50 0.75 0.55 2.25 1.80 3.35 2.75 2 1.75 2 1.75 0.15 1.80 -1.70 0 -1.90 -0.15 -1.90 -1.25z"/>
  <path d="M193.75 316 c0.15 -0.25 0.95 -0.95 1.75 -1.50 1.50 -1.05 1.50 -1.05 1.50 0.45 0 1.45 -0.15 1.55 -1.80 1.55 -1 0 -1.65 -0.20 -1.45 -0.50z"/>
  <path d="M315.15 316.15 c-0.65 -0.25 -0.95 -2.65 -0.35 -2.65 0.65 0 4.20 2.20 4.20 2.60 0 0.45 -2.85 0.50 -3.85 0.05z"/>
  <path d="M198.50 313.50 c0 -0.60 1.65 -1.50 2.70 -1.50 0.45 0 0.80 0.45 0.80 1 0 0.80 -0.35 1 -1.75 1 -0.95 0 -1.75 -0.20 -1.75 -0.50z"/>
 </g>
 <g fill="#000000">
  <path d="M212.50 687 c-10.20 -0.60 -15.20 -3.40 -20.95 -11.70 -3.70 -5.35 -4.15 -7.20 -4.60 -19.05 -0.45 -13 -0.55 -40.25 -0.15 -40.25 0.20 0 1.50 0.75 2.90 1.70 1.40 0.95 3.70 2.25 5.05 2.90 1.40 0.60 2.60 1.25 2.75 1.40 0.20 0.25 3.95 1.85 10 4.30 0.95 0.40 3.20 1.15 5 1.65 3.25 0.90 3.25 0.90 3.40 14.25 0.10 13.30 0.10 13.30 151.75 13.20 151.60 -0.15 151.60 -0.15 155.40 -2.05 4.55 -2.30 7.80 -5.45 9.95 -9.70 2.80 -5.60 3 -8.05 3 -35.95 0 -15.85 -0.20 -25.20 -0.50 -25.20 -0.25 0 -0.70 0.40 -0.95 0.90 -0.65 1.20 -6.60 7 -8.40 8.15 -0.75 0.50 -1.75 1.15 -2.15 1.45 -3.50 2.35 -4.60 3 -5.05 3 -0.25 0 -1.55 0.55 -2.85 1.20 -11.05 5.60 -31.80 7.30 -48.80 4.05 -8.20 -1.60 -18.10 -5.50 -24.80 -9.75 -11.55 -7.45 -21.70 -18.45 -27.40 -29.75 -8.95 -17.85 -12.75 -38.90 -11.15 -62.50 0.75 -10.70 1.65 -16.65 3.90 -25.45 6.50 -25.45 21.45 -44.80 42.75 -55.20 4.15 -2.05 12 -4.90 15.40 -5.60 12.50 -2.70 17.55 -3.10 28.70 -2.50 24.65 1.35 40.85 7.50 54.10 20.50 5.40 5.35 12.70 15.80 12.70 18.25 0 0.35 0.20 0.75 0.45 0.85 0.70 0.25 3.95 10 4.75 14.20 0.40 2.20 0.85 5.70 1.05 7.85 0.35 3.85 0.35 3.85 -19.20 3.75 -19.60 -0.15 -19.60 -0.15 -20.85 -3.80 -4.95 -14.70 -14.30 -23.55 -27.60 -26.10 -6 -1.15 -9.70 -1.25 -15.85 -0.30 -21.85 3.35 -34.45 18.75 -38 46.60 -1.10 8.35 -0.85 30.15 0.45 36.70 2.75 14.35 8.65 24.40 18.55 31.65 3.35 2.45 7.70 4.40 12.70 5.75 4 1.05 5.95 1.25 11.80 1.30 9.25 0.05 13.80 -1.10 22.65 -5.60 2.70 -1.35 7.95 -5.90 10.30 -8.90 3.90 -5 6 -10.60 6.40 -17.20 0.15 -2.75 0.15 -2.75 -18.30 -2.85 -10.15 -0.05 -18.55 -0.25 -18.70 -0.40 -0.35 -0.35 -0.35 -0.80 -0.55 -19.40 -0.05 -7.95 -0.05 -14.50 0.05 -14.65 0.15 -0.10 17.55 -0.20 38.70 -0.20 38.45 -0.05 38.45 -0.05 38.60 67.60 0.10 48.45 0 69 -0.40 72.35 -0.35 2.75 -1.30 6.85 -2.35 9.75 -7.60 21.90 -19.95 33.35 -41.15 38.20 -3.50 0.80 -14.45 0.85 -155.50 0.90 -83.45 0 -154.10 -0.10 -157 -0.30z"/>
  <path d="M235.75 604.70 c-10.45 -1.50 -15.45 -2.70 -22.75 -5.30 -18.30 -6.60 -30.40 -17.90 -35.40 -33.15 -1.85 -5.65 -2.30 -8.85 -2.30 -18 -0.05 -9 -0.05 -9 18.35 -9.15 18.35 -0.10 18.35 -0.10 18.35 1.80 0 3 1.90 9.50 3.90 13.35 2.25 4.25 7.30 9.35 11.50 11.65 5.50 2.90 10.90 4.20 19.35 4.45 16.15 0.55 26.15 -3.65 30.60 -12.85 1.05 -2.20 1.35 -3.70 1.55 -7.60 0.20 -4.35 0.10 -5.10 -1.05 -7.55 -2.50 -5.45 -7.40 -9.25 -15.35 -11.75 -1.80 -0.55 -10.60 -2.85 -19.60 -5.05 -15.65 -3.90 -26.25 -7 -30.75 -9.10 -1.20 -0.50 -2.35 -0.95 -2.60 -0.95 -0.85 0 -9.80 -4.80 -13.35 -7.15 -9.95 -6.55 -16.85 -15.85 -19.75 -26.60 -0.95 -3.45 -1.10 -5.40 -1.15 -14.25 -0.05 -11.10 0.50 -15.05 3.05 -22.50 2.40 -7 8.35 -16 13.05 -19.80 1.30 -1.05 2.75 -2.30 3.20 -2.70 1.70 -1.55 7.80 -4.90 12.20 -6.65 10.95 -4.40 22.45 -6.35 37.40 -6.35 17.30 0.05 29.20 2.40 40.05 7.95 12.20 6.30 20.60 15.55 25.15 27.80 1.85 4.95 3.60 15.95 3.60 22.65 0 2.10 0 2.10 -17.60 2.10 -9.70 0 -17.90 -0.20 -18.20 -0.40 -0.35 -0.20 -0.85 -1.60 -1.15 -3.15 -1 -4.70 -4.05 -11.95 -5.05 -11.95 -0.30 0 -0.50 -0.25 -0.50 -0.55 0 -0.95 -4 -4.30 -6.80 -5.65 -6.85 -3.35 -13.85 -4.55 -23.90 -4.15 -9.60 0.40 -14.85 2.20 -19.65 6.70 -7.25 6.75 -7.40 18.90 -0.30 25.15 5.55 4.85 12.90 7.55 34.40 12.50 10.35 2.35 22.60 5.85 29.15 8.30 19.45 7.20 31.25 19.55 34.90 36.50 1.30 6.20 1.20 20.80 -0.20 28.05 -1.10 5.55 -1.60 7 -3.95 12.15 -5.70 12.40 -19.25 22.45 -37.40 27.75 -9.55 2.80 -13.60 3.30 -27 3.50 -6.85 0.10 -13.15 0.05 -14 -0.05z"/>
  <path d="M342 507.75 c0 -93.75 0 -93.75 19.30 -93.85 10.60 -0.10 19.40 -0.05 19.50 0.05 0.10 0.10 0.20 42.35 0.20 93.90 0 93.65 0 93.65 -19.50 93.65 -19.50 0 -19.50 0 -19.50 -93.75z"/>
  <path d="M596.50 507.75 c0 -93.75 0 -93.75 61.55 -93.75 61.55 0 61.55 0 61.30 17.60 -0.30 17.65 -0.30 17.65 -41.30 17.80 -41.05 0.10 -41.05 0.10 -41.05 19.60 0 19.50 0 19.50 38.40 19.50 38.35 0 38.35 0 38.50 18.25 0.10 18.25 0.10 18.25 -39 18.35 -39.15 0.15 -39.15 0.15 -39.30 20.25 -0.10 20.15 -0.10 20.15 43.50 20.25 43.65 0.15 43.65 0.15 43.65 17.90 0 17.75 0 17.75 -63.10 17.90 -63.15 0.10 -63.15 0.10 -63.15 -93.65z"/>
  <path d="M745.15 600.70 c-0.15 -0.45 -0.15 -37.75 0 -82.90 0.20 -45.15 0.35 -86.95 0.35 -92.90 0 -10.90 0 -10.90 37.15 -10.90 38.45 0 43.95 0.25 53.85 2.25 5.40 1.10 15 3.85 15 4.30 0 0.25 0.80 0.55 1.80 0.75 2 0.35 10.30 4.75 14.90 7.85 4.80 3.30 15.20 13.95 18.55 19 7.45 11.40 12.15 23.80 14.40 38.10 1.50 9.55 1.60 31 0.15 39.50 -1.50 9.15 -3.25 16.15 -5.50 22.25 -10.25 27.40 -32.20 45.05 -63.65 51.20 -10.15 2 -16.70 2.30 -52.30 2.30 -31.45 0 -34.40 -0.05 -34.70 -0.80z m72.70 -35.75 c20.30 -2.70 34.30 -14.25 40.30 -33.20 3.45 -10.75 4.65 -25.20 3.10 -36.25 -3 -21.15 -12.95 -35.10 -29.35 -41.05 -8.75 -3.20 -11.50 -3.55 -30 -3.80 -16.90 -0.25 -16.90 -0.25 -16.90 52.45 0 28.95 -0.15 54.85 -0.35 57.55 -0.30 4.85 -0.30 4.85 14.50 4.85 8.10 0 16.55 -0.25 18.70 -0.55z"/>
  <path d="M187 389.85 c-0.20 -7.65 0.15 -53.35 0.45 -57.90 0.30 -5.75 0.50 -6.60 2.05 -9.75 2.35 -4.85 5.90 -8.15 10.30 -9.75 3.45 -1.20 3.45 -1.20 54.65 -1.35 50.05 -0.10 51.35 -0.10 55.25 0.90 5 1.25 9.10 3.35 13.45 6.90 4.75 3.85 14.70 14.30 21.95 23 1.35 1.60 1.35 1.60 92.85 1.60 101 0 95.85 -0.15 102.45 3.10 3.60 1.80 6.35 4.80 7.95 8.65 0.95 2.25 1.10 3.70 1.25 13.15 0.15 10.60 0.15 10.60 -157.85 10.60 -96.60 0 -160.25 0.20 -163.75 0.50 -10.15 0.85 -25.80 4.30 -31.85 7.05 -1.20 0.50 -2.45 0.95 -2.80 0.95 -0.40 0 -0.80 0.15 -1 0.30 -0.15 0.15 -1.45 0.85 -2.80 1.50 -1.70 0.75 -2.55 0.95 -2.55 0.55z"/>
 </g>
</svg>